<svg aria-hidden="true" style="width:0;height:0;position:absolute;overflow:hidden" xmlns="http://www.w3.org/2000/svg"><defs><symbol id="icon-soc-github" viewBox="0 0 32 32"><path d="M16 6.588c-5.17 0-9.412 4.242-9.412 9.412 0 4.411 3.096 8.418 7.206 9.412v-3.114a2.307 2.307 0 0 1-1.197-.03c-.556-.165-1.008-.535-1.343-1.1-.214-.361-.593-.752-.988-.723l-.097-1.1c.855-.072 1.594.522 2.033 1.26.195.327.42.52.708.605.278.082.577.042.926-.08.087-.698.407-.96.648-1.327-2.451-.366-3.428-1.667-3.816-2.693-.514-1.363-.238-3.066.67-4.142.018-.021.05-.076.038-.114-.417-1.259.09-2.3.11-2.41.48.142.558-.143 2.088.786l.264.159c.11.066.076.028.187.02a7.77 7.77 0 0 1 1.969-.279H16a7.986 7.986 0 0 1 2.058.299l-.056-.014.086.008c-.008 0 .023-.005.075-.036 1.91-1.157 1.842-.779 2.354-.945.019.11.52 1.168.108 2.41-.056.172 1.656 1.74.707 4.256-.388 1.027-1.365 2.328-3.816 2.693v.001c.314.479.692.734.69 1.722v3.887c4.11-.994 7.206-5 7.206-9.412 0-5.17-4.242-9.412-9.412-9.412z"/></symbol><symbol id="icon-soc-telegram" viewBox="0 0 33 32"><path d="m13.102 18.375-.317 4.17c.454 0 .651-.183.887-.401l2.13-1.9 4.415 3.017c.81.42 1.38.199 1.599-.695l2.897-12.673h.001c.257-1.118-.433-1.554-1.222-1.28L6.46 14.699c-1.162.42-1.145 1.026-.198 1.3l4.355 1.264 10.114-5.907c.476-.294.91-.131.553.163l-8.181 6.856z"/></symbol><symbol id="icon-soc-facebook" viewBox="0 0 33 32"><path d="M20.916 15.981h-2.61V25.6h-3.955v-9.62h-1.88V12.6h1.88v-2.187c0-1.565.74-4.014 3.99-4.014l2.93.012v3.281h-2.126c-.348 0-.839.176-.839.922v1.99h2.956l-.346 3.376z"/></symbol><symbol id="icon-home" viewBox="0 0 35 32"><path d="M32.64 15.4a1.539 1.539 0 0 0-.128-2.223l-.002-.002L17.737.426a1.849 1.849 0 0 0-1.184-.425c-.466 0-.892.171-1.218.454l.002-.002L.516 13.856a1.53 1.53 0 0 0-.072 2.222l.373.381c.613.635 1.611.709 2.224.168l1.107-.979v14.328a1.6 1.6 0 0 0 1.6 1.589H11.55a1.6 1.6 0 0 0 1.6-1.589V19.951h7.371v10.024c-.013.88.624 1.589 1.515 1.589h6.134a1.6 1.6 0 0 0 1.6-1.589V15.849l.685.592c.376.325 1.168.064 1.765-.587l.421-.453z"/></symbol><symbol id="icon-advantages-1" viewBox="0 0 21 32"><path d="M2.336.141c-.352.192-.557.563-.557 1.011.006.813.211 1.555.614 2.195l.179.294-.339.384c-.384.422-.474.576-.64 1.088a3.186 3.186 0 0 0-.028 1.602l-.004-.022a2.693 2.693 0 0 0 2.594 1.983 2.68 2.68 0 0 0 1.855-.743l-.001.001.378-.314.346.179c.198.096.531.243.742.32l.384.141v.704c0 1.101.224 1.76.813 2.355.576.589 1.498.896 2.285.762.57-.102 1.12-.384 1.491-.768.589-.589.813-1.248.813-2.355V8.26l.384-.134c.211-.083.544-.23.742-.326l.346-.179.378.32a2.69 2.69 0 0 0 4.444-1.222l.005-.019a3.172 3.172 0 0 0-.031-1.61l.005.023a2.462 2.462 0 0 0-.646-1.088l-.339-.384.179-.294c.403-.64.608-1.382.614-2.195 0-.448-.205-.819-.557-1.011L18.529 0H2.593l-.262.141zm14.733 1.958c0 .019-.179.314-.397.666-.653 1.024-.627 1.254.237 2.17.314.326.602.659.64.736.237.461-.23 1.037-.742.915-.128-.026-.397-.243-.787-.627-.787-.774-1.056-.864-1.664-.518-.571.342-1.233.653-1.925.898l-.078.024c-.608.173-.813.307-.973.64-.128.256-.141.358-.141 1.363 0 1.229-.051 1.427-.403 1.6-.256.128-.301.128-.55 0-.352-.173-.403-.371-.403-1.6 0-1.005-.006-1.107-.128-1.363-.173-.326-.384-.467-.986-.64a7.524 7.524 0 0 1-1.741-.774c-.403-.262-.762-.365-1.043-.314-.179.038-.365.186-.858.666-.403.39-.691.621-.819.646-.512.122-.973-.461-.742-.915.045-.077.333-.41.646-.736.864-.915.896-1.139.237-2.176-.218-.346-.397-.64-.397-.659 0-.026 2.931-.038 6.509-.038 3.584 0 6.509.013 6.509.038zM.486 13.203c-.32.218-.486.512-.486.845 0 .224 3.117 16.928 3.232 17.28.051.192.282.422.518.544.23.128.384.128 6.81.128 6.419 0 6.579 0 6.81-.128.237-.128.467-.352.518-.544.115-.352 3.232-17.056 3.232-17.28 0-.326-.173-.627-.486-.845l-.205-.141H.691l-.205.141zm18.202 2.285c-.064.499-.416 1.587-.678 2.08-1.28 2.374-3.712 3.821-6.733 3.987-2.278.128-4.205-.333-5.824-1.395a7.063 7.063 0 0 1-2.235-2.397l-.018-.035a8.104 8.104 0 0 1-.766-2.187l-.009-.053-.045-.358h16.358l-.045.358zM4.39 21.92c2.63 1.773 6.566 2.24 9.882 1.165a10.584 10.584 0 0 0 3.181-1.683c.275-.218.294-.218.269-.083l-.806 4.243-.8 4.23-.032.147H5.038l-.032-.147-.8-4.224-.806-4.25c-.026-.134-.006-.134.269.083.16.128.486.352.723.512z"/></symbol><symbol id="icon-advantages-2" viewBox="0 0 32 32"><path d="M29.528 21.411c-1.292-.458-2.381-.344-3.242.018.145-.877.47-1.832 1.17-2.481a1.065 1.065 0 1 0-1.449-1.561l.001-.001c-1.229 1.14-1.706 2.749-1.874 4.081a3.917 3.917 0 0 0-1.035-.308l-.023-.003 1.89-9.83a1.064 1.064 0 0 0-1.045-1.265h-.205c.094-.5.141-.998.138-1.47-.016-1.994-.904-3.496-2.374-4.017-1.409-.5-2.589-.349-3.507.067.145-.976.494-2.063 1.282-2.794A1.065 1.065 0 1 0 17.806.286l.001-.001c-1.32 1.225-1.814 2.966-1.981 4.387-.735-.348-1.644-.526-2.708-.33-1.094-1.571-2.613-2.296-4.09-1.942-1.452.349-2.358 1.116-2.9 1.962-.41-.899-.712-2.001-.451-3.036A1.065 1.065 0 0 0 3.613.799l-.002.007c-.44 1.746.094 3.475.729 4.758-1.016.138-2.117.65-3.049 1.866-.578.755-.773 1.698-.595 2.7a1.067 1.067 0 0 0-.673 1.204l-.001-.007L3.83 31.136c.097.502.536.864 1.046.864h15.236c.511 0 .949-.362 1.046-.864l.038-.195c.287.198.595.363.927.486 1.266.472 2.446.278 3.043.118a5.32 5.32 0 0 0 1.364.179c.506 0 1.084-.075 1.68-.297 2.36-.879 3.615-3.839 3.596-6.178-.015-1.904-.866-3.34-2.276-3.84zm-6.951-9.221c-.49 4.706-4.452 7.91-9.971 7.91s-9.48-3.205-9.971-7.91h19.942zm-6.642-4.675a1.049 1.049 0 0 0 1.861 0c.203-.312.46-.571.76-.771l.01-.006c.629-.408 1.35-.46 2.203-.157.851.301.952 1.517.956 2.026a5.74 5.74 0 0 1-.2 1.493l.009-.04h-7.126c.236-1.189.094-2.492-.289-3.668.392.023.751.149 1.054.351l-.008-.005c.31.205.567.465.764.767l.006.01zM2.98 8.724c.55-.719 1.182-1.069 1.933-1.069h.001c.571 0 1.016.207 1.067.232.34.189.749.172 1.078-.038.332-.211.51-.591.481-.982-.006-.077-.115-1.894 1.983-2.397.877-.211 1.626.753 1.907 1.178.807 1.221 1.221 3.108.776 4.413H2.858c-.141-.442-.179-.943.122-1.336zM5.754 29.87 3.643 18.893c.138.132.281.262.428.388 2.208 1.901 5.239 2.948 8.535 2.948s6.328-1.047 8.536-2.948l.152-.134-.431 2.243-.061.02c-1.41.5-2.26 1.935-2.276 3.839-.009 1.165.298 2.483.899 3.621l-.192.999H5.755zm21.711-.438c-.943.351-1.882.017-1.916.004a1.034 1.034 0 0 0-.775.003l.007-.003c-.009.003-.96.352-1.916-.004-1.338-.499-2.223-2.556-2.21-4.166.004-.466.094-1.578.858-1.849.279-.107.601-.17.938-.175h.002c1.107 0 1.658.812 1.782 1.024.184.35.536.57.931.57s.747-.22.931-.57c.156-.266.977-1.468 2.721-.849.764.271.854 1.383.858 1.85.013 1.609-.872 3.667-2.209 4.165z"/></symbol><symbol id="icon-advantages-3" viewBox="0 0 28 32"><path d="M6.505.677C3.699 1.268 1.52 3.582.807 6.72.542 7.815.561 9.926.819 11.126c.623 2.798 2 5.21 3.906 7.087l.002.002c1.828 1.846 3.428 2.966 5.969 4.129l1.323.628v8.412h1.422v-7.951l.357.105c.203.055.511.055.714 0l.357-.105v7.951h1.422v-8.425l1.268-.578a19.195 19.195 0 0 0 5.96-4.108l.003-.003c2.757-2.8 4.172-5.988 4.172-9.452.012-3.797-1.982-6.88-5.108-7.926-.665-.234-1.009-.271-2.265-.258-1.317.012-1.612.062-2.609.369-1.169.382-2.326.985-3.077 1.606l-.443.369-.64-.474A9.144 9.144 0 0 0 8.255.621h-.014c-.689-.018-1.477 0-1.735.062zm2.707 1.434a9.869 9.869 0 0 1 1.526.431c.757.308 2.031 1.108 2.523 1.582.775.726.985.714 1.865-.068a8.689 8.689 0 0 1 5.401-2.104h.014c2.48 0 4.738 1.938 5.465 4.677.135.486.246 1.268.265 1.742.049 1.04.012 1.071-1.6 1.686-1.305.492-2.4.738-4.271.948-1.194.135-1.446.203-1.815.474-.757.56-.874.978-.874 3.335 0 1.766-.025 2.098-.203 2.283-.246.277-.689.265-.985-.025-.222-.215-.234-.382-.234-2.708 0-2.585-.074-3.028-.554-3.545-.111-.123-.954-.566-1.865-1.015a16.007 16.007 0 0 1-2.729-1.595l.046.032C8.215 6.013 6.898 5.379 4.455 4.998a28.75 28.75 0 0 1-1.317-.228c-.105-.08.535-.905 1.114-1.409 1.378-1.225 2.942-1.618 4.96-1.249zM5.286 6.566a11.277 11.277 0 0 1 3.841 1.927l-.026-.019 1.483 1.083a16.698 16.698 0 0 0 2.999 1.699l.109.043c.486.209.948.455 1.028.554.111.129.148.862.148 2.671 0 2.178.031 2.548.222 2.954.394.831 1.022 1.212 1.982 1.212.615 0 1.046-.185 1.495-.658.505-.523.566-.843.566-3.046 0-2.505-.025-2.462 1.378-2.578 1.415-.123 3.188-.505 4.363-.929a4.642 4.642 0 0 1 1.097-.334l.029-.004c.123.123-.763 2.388-1.286 3.262a13.316 13.316 0 0 1-2.726 3.398l-.013.011a19.755 19.755 0 0 1-6.753 4.013l-.139.042-.929.32-.911-.32c-2.768-.933-5.142-2.394-7.108-4.277l.007.006c-2.468-2.369-3.754-4.874-4.08-7.84-.123-1.108.062-3.015.332-3.465.092-.16 1.785.012 2.892.277z"/><path d="M6.505.677C3.699 1.268 1.52 3.582.807 6.72.542 7.815.561 9.926.819 11.126c.623 2.798 2 5.21 3.906 7.087l.002.002c1.828 1.846 3.428 2.966 5.969 4.129l1.323.628v8.412h1.422v-7.951l.357.105c.203.055.511.055.714 0l.357-.105v7.951h1.422v-8.425l1.268-.578a19.195 19.195 0 0 0 5.96-4.108l.003-.003c2.757-2.8 4.172-5.988 4.172-9.452.012-3.797-1.982-6.88-5.108-7.926-.665-.234-1.009-.271-2.265-.258-1.317.012-1.612.062-2.609.369-1.169.382-2.326.985-3.077 1.606l-.443.369-.64-.474A9.144 9.144 0 0 0 8.255.621h-.014c-.689-.018-1.477 0-1.735.062zm2.707 1.434a9.869 9.869 0 0 1 1.526.431c.757.308 2.031 1.108 2.523 1.582.775.726.985.714 1.865-.068a8.689 8.689 0 0 1 5.401-2.104h.014c2.48 0 4.738 1.938 5.465 4.677.135.486.246 1.268.265 1.742.049 1.04.012 1.071-1.6 1.686-1.305.492-2.4.738-4.271.948-1.194.135-1.446.203-1.815.474-.757.56-.874.978-.874 3.335 0 1.766-.025 2.098-.203 2.283-.246.277-.689.265-.985-.025-.222-.215-.234-.382-.234-2.708 0-2.585-.074-3.028-.554-3.545-.111-.123-.954-.566-1.865-1.015a16.007 16.007 0 0 1-2.729-1.595l.046.032C8.215 6.013 6.898 5.379 4.455 4.998a28.75 28.75 0 0 1-1.317-.228c-.105-.08.535-.905 1.114-1.409 1.378-1.225 2.942-1.618 4.96-1.249zM5.286 6.566a11.277 11.277 0 0 1 3.841 1.927l-.026-.019 1.483 1.083a16.698 16.698 0 0 0 2.999 1.699l.109.043c.486.209.948.455 1.028.554.111.129.148.862.148 2.671 0 2.178.031 2.548.222 2.954.394.831 1.022 1.212 1.982 1.212.615 0 1.046-.185 1.495-.658.505-.523.566-.843.566-3.046 0-2.505-.025-2.462 1.378-2.578 1.415-.123 3.188-.505 4.363-.929a4.642 4.642 0 0 1 1.097-.334l.029-.004c.123.123-.763 2.388-1.286 3.262a13.316 13.316 0 0 1-2.726 3.398l-.013.011a19.755 19.755 0 0 1-6.753 4.013l-.139.042-.929.32-.911-.32c-2.768-.933-5.142-2.394-7.108-4.277l.007.006c-2.468-2.369-3.754-4.874-4.08-7.84-.123-1.108.062-3.015.332-3.465.092-.16 1.785.012 2.892.277z"/></symbol><symbol id="icon-arrow" viewBox="0 0 19 32"><path fill="none" stroke-linecap="round" stroke-width="6.4" d="M3.2 3.2 14.753 16 3.2 28.8"/></symbol><symbol id="icon-logo" viewBox="0 0 127 32"><path fill="#fff" style="fill:var(--color2,#fff)" d="M31.36 16.32C31.36 24.98 24.483 32 16 32S.64 24.98.64 16.32 7.517.64 16 .64s15.36 7.02 15.36 15.68z"/><path fill="#d41443" style="fill:var(--color1,#d41443)" d="M11.849.561C4.444 2.804 0 8.635 0 16.003c0 6.022 3.091 11.277 8.179 13.904 2.64 1.345 3.027.384.579-1.474-1.738-1.409-2.061-2.05-2.061-4.421 0-1.666-.386-3.011-.966-3.524-1.158-.961-1.288-3.46-.128-4.357.45-.384.901-1.666.965-2.819.323-4.228 4.895-8.201 9.467-8.201s9.144 3.972 9.466 8.201c.064 1.153.515 2.435.966 2.819 1.158.897 1.03 3.396-.129 4.357-.579.513-.966 1.858-.966 3.524 0 2.371-.321 3.012-2.06 4.421-2.705 2.115-1.932 2.883 1.094 1.025 4.251-2.627 7.406-8.33 7.406-13.391 0-10.124-10.561-18.325-19.964-15.506z"/><path fill="#d41443" style="fill:var(--color1,#d41443)" d="M12.687 7.994c-1.16.513-2.125 1.154-2.125 1.538 0 .705 3.478 1.987 5.474 1.987s5.474-1.281 5.474-1.987c0-.768-3.993-2.499-5.603-2.499-.644.064-2.125.448-3.22.961zm33.164 3.332c-.966.256-1.158 1.089-1.158 5.702v5.382h4.572l-.193-5.574c-.193-5.83-.451-6.28-3.22-5.51zm7.535.32c-2.125 1.154-2.898 2.563-2.898 5.318 0 3.78 2.061 5.574 5.86 5.318 2.576-.192 2.833-.385 3.027-1.987s.064-1.73-1.932-1.602c-2.061.192-2.125.064-2.125-2.051s.129-2.243 1.997-2.05c1.545.128 2.125-.128 2.382-1.089.129-.641 0-1.538-.387-1.923-.901-.897-4.25-.897-5.924.064zm7.664.064c-.194.513-.258 3.012-.129 5.638l.193 4.742H65.3c3.864 0 4.186-.128 4.379-1.474.193-1.217-.064-1.409-2.06-1.409-1.288 0-2.319-.32-2.319-.641 0-.385.902-.641 1.932-.641 1.481 0 1.932-.256 1.932-1.281s-.451-1.281-1.932-1.281c-1.03 0-1.932-.32-1.932-.641 0-.385.837-.641 1.868-.641 1.804 0 3.027-1.409 2.254-2.627-.58-.961-7.985-.705-8.371.256zm12.943-.192c-2.125.833-2.962 2.307-3.027 4.998-.065 4.613 1.803 6.215 6.633 5.766 1.868-.128 2.189-.448 2.189-1.794 0-1.409-.257-1.602-2.061-1.409-1.546.128-2.125-.064-2.447-1.089-.58-1.987.644-3.588 2.705-3.588 1.224 0 1.868-.384 1.996-1.217.451-2.051-2.833-3.011-5.989-1.666zm7.921-.256c-.323.256-.515 2.883-.515 5.83v5.382l2.06-.192c1.61-.128 2.19-.577 2.512-1.795l.386-1.602.515 1.73c.387 1.474.837 1.795 2.512 1.795 2.769 0 3.091-.449 1.932-2.691-.708-1.41-.837-2.115-.322-2.627.837-.833.902-3.652.129-4.87-.644-1.025-8.371-1.858-9.208-.961zm5.28 3.46c0 .705-.257 1.281-.644 1.281-.322 0-.644-.576-.644-1.281s.322-1.282.644-1.282c.387 0 .644.577.644 1.282zm6.247-3.396c-.258.192-.451 2.819-.451 5.766v5.318h4.186c4.057 0 4.186-.064 4.186-1.602 0-1.346-.322-1.602-1.932-1.602-1.03 0-1.932-.32-1.932-.641 0-.385.708-.641 1.61-.641 1.159 0 1.61-.321 1.61-1.282s-.451-1.281-1.61-1.281c-.902 0-1.61-.32-1.61-.641 0-.384.902-.641 1.932-.641 1.61 0 1.932-.256 1.932-1.602 0-1.538-.193-1.602-3.735-1.602-2.061 0-3.992.192-4.186.448zm13.009-.064c-1.16.32-4.122 8.842-3.542 10.252.515 1.281 3.413 1.153 4.186-.192.579-1.089.644-1.089 1.803 0 1.482 1.281 4.701 1.474 4.701.256 0-.384-.644-2.947-1.482-5.574-1.288-4.228-1.674-4.805-3.027-4.933-.902 0-2.061.064-2.64.192zm1.803 5.83c-.193.641-.322.256-.322-.769 0-1.089.129-1.538.322-1.153.129.448.129 1.345 0 1.922zm7.47-5.766c-.58.192-.837 1.986-.837 5.702v5.382h1.868c1.61 0 1.932-.321 2.189-1.795.257-1.666.257-1.666.772-.32.258.833.902 1.474 1.352 1.474.515 0 1.224-.641 1.546-1.474.515-1.346.58-1.346.58.384.065 1.602.257 1.795 2.061 1.602l1.996-.192.065-5.318c.129-4.933.064-5.318-1.288-5.638-2.061-.512-3.799.705-4.379 3.076l-.451 2.115-.708-2.243c-.902-3.012-2.254-3.78-4.765-2.755zm-106.707.641c-.193.256-.387 1.089-.387 1.922 0 1.474.064 1.474 7.406 1.474 7.341 0 7.405 0 7.405-1.474 0-2.179-.579-2.435-2.64-1.409-2.319 1.217-7.213 1.217-9.531 0-1.03-.513-1.997-.705-2.254-.513zm-1.868 5.702c-1.03 1.089.708 1.538 5.731 1.538h5.409v2.243c0 1.217.322 2.243.644 2.243.386 0 .644-.961.644-2.179 0-2.115.129-2.243 2.576-2.435 1.416-.128 2.576-.512 2.576-.832 0-.705-16.872-1.282-17.581-.577z"/><path fill="#d41443" style="fill:var(--color1,#d41443)" d="M8.629 23.308c0 3.524 1.224 4.229 7.406 4.229s7.405-.705 7.405-4.229c0-1.538-.322-2.179-.966-2.179-.579 0-.965.577-.965 1.538 0 3.588-4.895 3.908-5.603.384-.322-1.858-.515-1.922-3.799-1.922H8.629v2.179zm3.993 7.24c.387 2.051 6.955 1.859 6.955-.128 0-.705-.837-.961-3.606-.961-3.027 0-3.542.192-3.348 1.089z"/></symbol><symbol id="icon-arrow" viewBox="0 0 32 32"><path d="m19.414 27.414 10-10a2 2 0 0 0 0-2.828l-10-10a2 2 0 1 0-2.828 2.828L23.172 14H4a2 2 0 1 0 0 4h19.172l-6.586 6.586c-.39.39-.586.902-.586 1.414s.195 1.024.586 1.414a2 2 0 0 0 2.828 0z"/></symbol><symbol id="icon-modal-burger" viewBox="0 0 32 32"><path d="M6.4 11.736V9.6h19.2v2.136H6.4zm0 5.328h19.2v-2.128H6.4v2.128zm0 5.336h19.2v-2.136H6.4V22.4z"/></symbol><symbol id="icon-modal-close" viewBox="0 0 32 32"><path d="m26.667 7.303-1.97-1.97-7.808 7.808-7.808-7.808-1.97 1.97 7.808 7.808-7.808 7.808 1.97 1.97 7.808-7.808 7.808 7.808 1.97-1.97-7.808-7.808 7.808-7.808z"/></symbol><symbol id="icon-products-dots" viewBox="0 0 139 32"><path fill="#fff" style="fill:var(--color1,#fff)" d="M85.333 16c0 8.837-7.163 16-16 16s-16-7.163-16-16 7.163-16 16-16 16 7.163 16 16zM32 16c0 8.837-7.163 16-16 16S0 24.837 0 16 7.163 0 16 0s16 7.163 16 16zM138.667 16c0 8.837-7.163 16-16 16s-16-7.163-16-16 7.163-16 16-16 16 7.163 16 16z"/></symbol><symbol id="icon-products-arrow" viewBox="0 0 32 32"><path d="m19.414 27.414 10-10a2 2 0 0 0 0-2.828l-10-10a2 2 0 1 0-2.828 2.828L23.172 14H4a2 2 0 1 0 0 4h19.172l-6.586 6.586c-.39.39-.586.902-.586 1.414s.195 1.024.586 1.414a2 2 0 0 0 2.828 0z"/></symbol><symbol id="icon-Burger-1" viewBox="0 0 46 32"><path fill="none" stroke="#d41443" style="stroke:var(--color1,#d41443)" stroke-width="2.286" d="M0 2.286h45.714M0 16h45.714M0 29.714h45.714"/></symbol><symbol id="icon-close-1" viewBox="0 0 32 32"><path fill="none" stroke="#fff" style="stroke:var(--color2,#fff)" stroke-width="2" d="m2.52 2 26.96 28M2 29.48 30 2.52"/></symbol></defs></svg>