<svg aria-hidden="true" style="position: absolute; width: 0; height: 0; overflow: hidden;" version="1.1" xmlns="http://www.w3.org/2000/svg" xmlns:xlink="http://www.w3.org/1999/xlink">
	<defs>
		<symbol id="icon-soc-github" viewBox="0 0 32 32">
			<path d="M16 6.588c-5.17 0-9.412 4.242-9.412 9.412 0 4.411 3.096 8.418 7.206 9.412v-3.114c-0.407 0.089-0.782 0.092-1.197-0.030-0.556-0.165-1.008-0.535-1.343-1.1-0.214-0.361-0.593-0.752-0.988-0.723l-0.097-1.1c0.855-0.072 1.594 0.522 2.033 1.26 0.195 0.327 0.42 0.52 0.708 0.605 0.278 0.082 0.577 0.042 0.926-0.080 0.087-0.698 0.407-0.96 0.648-1.327-2.451-0.366-3.428-1.667-3.816-2.693-0.514-1.363-0.238-3.066 0.67-4.142 0.018-0.021 0.050-0.076 0.038-0.114-0.417-1.259 0.090-2.3 0.11-2.41 0.48 0.142 0.558-0.143 2.088 0.786l0.264 0.159c0.11 0.066 0.076 0.028 0.187 0.020 0.589-0.167 1.268-0.268 1.969-0.279l0.006-0c0.717 0.011 1.404 0.114 2.058 0.299l-0.056-0.014 0.086 0.008c-0.008 0 0.023-0.005 0.075-0.036 1.91-1.157 1.842-0.779 2.354-0.945 0.019 0.11 0.52 1.168 0.108 2.41-0.056 0.172 1.656 1.74 0.707 4.256-0.388 1.027-1.365 2.328-3.816 2.693v0.001c0.314 0.479 0.692 0.734 0.69 1.722v3.887c4.11-0.994 7.206-5 7.206-9.412 0-5.17-4.242-9.412-9.412-9.412z">
			</path>
		</symbol>
		<symbol id="icon-soc-telegram" viewBox="0 0 33 32">
			<path d="M13.102 18.375l-0.317 4.17c0.454 0 0.651-0.183 0.887-0.401l2.13-1.9 4.415 3.017c0.81 0.42 1.38 0.199 1.599-0.695l2.897-12.673h0.001c0.257-1.118-0.433-1.554-1.222-1.28l-17.032 6.086c-1.162 0.42-1.145 1.026-0.198 1.3l4.355 1.264 10.114-5.907c0.476-0.294 0.91-0.131 0.553 0.163l-8.181 6.856z">
			</path>
		</symbol>
		<symbol id="icon-soc-facebook" viewBox="0 0 33 32">
			<path d="M20.916 15.981h-2.61v9.619h-3.955v-9.62h-1.88v-3.38h1.88v-2.187c0-1.565 0.74-4.014 3.99-4.014l2.93 0.012v3.281h-2.126c-0.348 0-0.839 0.176-0.839 0.922v1.99h2.956l-0.346 3.376z">
			</path>
		</symbol>
		<symbol id="icon-home" viewBox="0 0 35 32">
			<path d="M32.64 15.4c0.256-0.274 0.413-0.644 0.413-1.050 0-0.47-0.21-0.89-0.541-1.173l-0.002-0.002-14.773-12.749c-0.319-0.265-0.733-0.425-1.184-0.425-0.466 0-0.892 0.171-1.218 0.454l0.002-0.002-14.821 13.403c-0.316 0.282-0.515 0.69-0.515 1.145 0 0.42 0.169 0.8 0.443 1.077l-0-0 0.373 0.381c0.613 0.635 1.611 0.709 2.224 0.168l1.107-0.979v14.328c0.006 0.879 0.72 1.589 1.6 1.589 0.005 0 0.009-0 0.014-0h5.775c0.004 0 0.009 0 0.013 0 0.88 0 1.594-0.71 1.6-1.589v-10.025h7.371v10.024c-0.013 0.88 0.624 1.589 1.515 1.589h6.123c0.003 0 0.007 0 0.011 0 0.88 0 1.594-0.71 1.6-1.589v-14.126l0.685 0.592c0.376 0.325 1.168 0.064 1.765-0.587l0.421-0.453z">
			</path>
		</symbol>
		<symbol id="icon-advantages-1" viewBox="0 0 21 32">
			<path d="M2.336 0.141c-0.352 0.192-0.557 0.563-0.557 1.011 0.006 0.813 0.211 1.555 0.614 2.195l0.179 0.294-0.339 0.384c-0.384 0.422-0.474 0.576-0.64 1.088-0.073 0.256-0.116 0.55-0.116 0.853 0 0.258 0.030 0.509 0.088 0.749l-0.004-0.022c0.32 1.152 1.36 1.983 2.594 1.983 0.719 0 1.373-0.283 1.855-0.743l-0.001 0.001 0.378-0.314 0.346 0.179c0.198 0.096 0.531 0.243 0.742 0.32l0.384 0.141v0.704c0 1.101 0.224 1.76 0.813 2.355 0.576 0.589 1.498 0.896 2.285 0.762 0.57-0.102 1.12-0.384 1.491-0.768 0.589-0.589 0.813-1.248 0.813-2.355v-0.698l0.384-0.134c0.211-0.083 0.544-0.23 0.742-0.326l0.346-0.179 0.378 0.32c0.481 0.459 1.135 0.742 1.854 0.742 1.234 0 2.274-0.831 2.59-1.964l0.005-0.019c0.056-0.223 0.088-0.48 0.088-0.744 0-0.3-0.041-0.591-0.119-0.866l0.005 0.023c-0.123-0.429-0.348-0.796-0.646-1.088l-0-0-0.339-0.384 0.179-0.294c0.403-0.64 0.608-1.382 0.614-2.195 0-0.448-0.205-0.819-0.557-1.011l-0.256-0.141h-15.936l-0.262 0.141zM17.069 2.099c0 0.019-0.179 0.314-0.397 0.666-0.653 1.024-0.627 1.254 0.237 2.17 0.314 0.326 0.602 0.659 0.64 0.736 0.237 0.461-0.23 1.037-0.742 0.915-0.128-0.026-0.397-0.243-0.787-0.627-0.787-0.774-1.056-0.864-1.664-0.518-0.571 0.342-1.233 0.653-1.925 0.898l-0.078 0.024c-0.608 0.173-0.813 0.307-0.973 0.64-0.128 0.256-0.141 0.358-0.141 1.363 0 1.229-0.051 1.427-0.403 1.6-0.256 0.128-0.301 0.128-0.55 0-0.352-0.173-0.403-0.371-0.403-1.6 0-1.005-0.006-1.107-0.128-1.363-0.173-0.326-0.384-0.467-0.986-0.64-0.531-0.147-1.306-0.493-1.741-0.774-0.403-0.262-0.762-0.365-1.043-0.314-0.179 0.038-0.365 0.186-0.858 0.666-0.403 0.39-0.691 0.621-0.819 0.646-0.512 0.122-0.973-0.461-0.742-0.915 0.045-0.077 0.333-0.41 0.646-0.736 0.864-0.915 0.896-1.139 0.237-2.176-0.218-0.346-0.397-0.64-0.397-0.659 0-0.026 2.931-0.038 6.509-0.038 3.584 0 6.509 0.013 6.509 0.038zM0.486 13.203c-0.32 0.218-0.486 0.512-0.486 0.845 0 0.224 3.117 16.928 3.232 17.28 0.051 0.192 0.282 0.422 0.518 0.544 0.23 0.128 0.384 0.128 6.81 0.128 6.419 0 6.579 0 6.81-0.128 0.237-0.128 0.467-0.352 0.518-0.544 0.115-0.352 3.232-17.056 3.232-17.28 0-0.326-0.173-0.627-0.486-0.845l-0.205-0.141h-19.738l-0.205 0.141zM18.688 15.488c-0.064 0.499-0.416 1.587-0.678 2.080-1.28 2.374-3.712 3.821-6.733 3.987-2.278 0.128-4.205-0.333-5.824-1.395-0.935-0.625-1.694-1.441-2.235-2.397l-0.018-0.035c-0.341-0.647-0.61-1.397-0.766-2.187l-0.009-0.053-0.045-0.358h16.358l-0.045 0.358zM4.39 21.92c2.63 1.773 6.566 2.24 9.882 1.165 1.107-0.352 2.24-0.954 3.181-1.683 0.275-0.218 0.294-0.218 0.269-0.083l-0.806 4.243-0.8 4.23-0.032 0.147h-11.046l-0.032-0.147-0.8-4.224-0.806-4.25c-0.026-0.134-0.006-0.134 0.269 0.083 0.16 0.128 0.486 0.352 0.723 0.512z">
			</path>
		</symbol>
		<symbol id="icon-advantages-2" viewBox="0 0 32 32">
			<path d="M29.528 21.411c-1.292-0.458-2.381-0.344-3.242 0.018 0.145-0.877 0.47-1.832 1.17-2.481 0.21-0.195 0.341-0.473 0.341-0.781 0-0.588-0.477-1.065-1.065-1.065-0.28 0-0.535 0.108-0.725 0.285l0.001-0.001c-1.229 1.14-1.706 2.749-1.874 4.081-0.306-0.142-0.662-0.25-1.035-0.308l-0.023-0.003 1.89-9.83c0.012-0.060 0.019-0.13 0.019-0.201 0-0.588-0.477-1.064-1.064-1.064-0 0-0 0-0.001 0h-0.204c0.094-0.5 0.141-0.998 0.138-1.47-0.016-1.994-0.904-3.496-2.374-4.017-1.409-0.5-2.589-0.349-3.507 0.067 0.145-0.976 0.494-2.063 1.282-2.794 0.21-0.195 0.341-0.473 0.341-0.781 0-0.588-0.477-1.065-1.065-1.065-0.28 0-0.535 0.108-0.725 0.285l0.001-0.001c-1.32 1.225-1.814 2.966-1.981 4.387-0.735-0.348-1.644-0.526-2.708-0.33-1.094-1.571-2.613-2.296-4.090-1.942-1.452 0.349-2.358 1.116-2.9 1.962-0.41-0.899-0.712-2.001-0.451-3.036 0.017-0.072 0.027-0.154 0.027-0.239 0-0.588-0.477-1.065-1.065-1.065-0.489 0-0.9 0.329-1.026 0.777l-0.002 0.007c-0.44 1.746 0.094 3.475 0.729 4.758-1.016 0.138-2.117 0.65-3.049 1.866-0.578 0.755-0.773 1.698-0.595 2.7-0.408 0.155-0.693 0.543-0.693 0.998 0 0.071 0.007 0.14 0.020 0.206l-0.001-0.007 3.808 19.809c0.097 0.502 0.536 0.864 1.046 0.864h15.236c0.511 0 0.949-0.362 1.046-0.864l0.038-0.195c0.287 0.198 0.595 0.363 0.927 0.486 1.266 0.472 2.446 0.278 3.043 0.118 0.316 0.085 0.796 0.179 1.364 0.179 0.506 0 1.084-0.075 1.68-0.297 2.36-0.879 3.615-3.839 3.596-6.178-0.015-1.904-0.866-3.34-2.276-3.84zM22.577 12.19c-0.49 4.706-4.452 7.91-9.971 7.91s-9.48-3.205-9.971-7.91h19.942zM15.935 7.515c0.184 0.348 0.536 0.566 0.931 0.566s0.746-0.218 0.93-0.566c0.203-0.312 0.46-0.571 0.76-0.771l0.010-0.006c0.629-0.408 1.35-0.46 2.203-0.157 0.851 0.301 0.952 1.517 0.956 2.026-0.001 0.517-0.071 1.017-0.2 1.493l0.009-0.040h-7.126c0.236-1.189 0.094-2.492-0.289-3.668 0.392 0.023 0.751 0.149 1.054 0.351l-0.008-0.005c0.31 0.205 0.567 0.465 0.764 0.767l0.006 0.010zM2.98 8.724c0.55-0.719 1.182-1.069 1.933-1.069h0.001c0.571 0 1.016 0.207 1.067 0.232 0.34 0.189 0.749 0.172 1.078-0.038 0.332-0.211 0.51-0.591 0.481-0.982-0.006-0.077-0.115-1.894 1.983-2.397 0.877-0.211 1.626 0.753 1.907 1.178 0.807 1.221 1.221 3.108 0.776 4.413h-9.348c-0.141-0.442-0.179-0.943 0.122-1.336zM5.754 29.87l-2.111-10.977c0.138 0.132 0.281 0.262 0.428 0.388 2.208 1.901 5.239 2.948 8.535 2.948s6.328-1.047 8.536-2.948c0.051-0.044 0.102-0.090 0.152-0.134l-0.431 2.243c-0.020 0.006-0.041 0.013-0.061 0.020-1.41 0.5-2.26 1.935-2.276 3.839-0.009 1.165 0.298 2.483 0.899 3.621l-0.192 0.999h-13.478zM27.465 29.432c-0.943 0.351-1.882 0.017-1.916 0.004-0.114-0.046-0.246-0.073-0.384-0.073s-0.27 0.027-0.391 0.076l0.007-0.003c-0.009 0.003-0.96 0.352-1.916-0.004-1.338-0.499-2.223-2.556-2.21-4.166 0.004-0.466 0.094-1.578 0.858-1.849 0.279-0.107 0.601-0.17 0.938-0.175l0.002-0c1.107 0 1.658 0.812 1.782 1.024 0.184 0.35 0.536 0.57 0.931 0.57s0.747-0.22 0.931-0.57c0.156-0.266 0.977-1.468 2.721-0.849 0.764 0.271 0.854 1.383 0.858 1.85 0.013 1.609-0.872 3.667-2.209 4.165z">
			</path>
		</symbol>
		<symbol id="icon-advantages-3" viewBox="0 0 28 32">
			<path d="M6.505 0.677c-2.806 0.591-4.985 2.905-5.698 6.043-0.265 1.095-0.246 3.206 0.012 4.406 0.623 2.798 2 5.21 3.906 7.087l0.002 0.002c1.828 1.846 3.428 2.966 5.969 4.129l1.323 0.628v8.412h1.422v-7.951l0.357 0.105c0.203 0.055 0.511 0.055 0.714 0l0.357-0.105v7.951h1.422v-8.425l1.268-0.578c2.318-1.030 4.296-2.414 5.96-4.108l0.003-0.003c2.757-2.8 4.172-5.988 4.172-9.452 0.012-3.797-1.982-6.88-5.108-7.926-0.665-0.234-1.009-0.271-2.265-0.258-1.317 0.012-1.612 0.062-2.609 0.369-1.169 0.382-2.326 0.985-3.077 1.606l-0.443 0.369-0.64-0.474c-1.46-1.123-3.298-1.821-5.297-1.883l-0.014-0c-0.689-0.018-1.477 0-1.735 0.062zM9.212 2.111c0.492 0.092 1.169 0.289 1.526 0.431 0.757 0.308 2.031 1.108 2.523 1.582 0.775 0.726 0.985 0.714 1.865-0.068 1.451-1.252 3.335-2.036 5.401-2.104l0.014-0c2.48 0 4.738 1.938 5.465 4.677 0.135 0.486 0.246 1.268 0.265 1.742 0.049 1.040 0.012 1.071-1.6 1.686-1.305 0.492-2.4 0.738-4.271 0.948-1.194 0.135-1.446 0.203-1.815 0.474-0.757 0.56-0.874 0.978-0.874 3.335 0 1.766-0.025 2.098-0.203 2.283-0.246 0.277-0.689 0.265-0.985-0.025-0.222-0.215-0.234-0.382-0.234-2.708 0-2.585-0.074-3.028-0.554-3.545-0.111-0.123-0.954-0.566-1.865-1.015-1.027-0.476-1.908-0.998-2.729-1.595l0.046 0.032c-2.972-2.228-4.289-2.862-6.732-3.243-0.695-0.111-1.292-0.215-1.317-0.228-0.105-0.080 0.535-0.905 1.114-1.409 1.378-1.225 2.942-1.618 4.96-1.249zM5.286 6.566c1.461 0.417 2.733 1.071 3.841 1.927l-0.026-0.019 1.483 1.083c0.897 0.643 1.918 1.225 2.999 1.699l0.109 0.043c0.486 0.209 0.948 0.455 1.028 0.554 0.111 0.129 0.148 0.862 0.148 2.671 0 2.178 0.031 2.548 0.222 2.954 0.394 0.831 1.022 1.212 1.982 1.212 0.615 0 1.046-0.185 1.495-0.658 0.505-0.523 0.566-0.843 0.566-3.046 0-2.505-0.025-2.462 1.378-2.578 1.415-0.123 3.188-0.505 4.363-0.929 0.325-0.147 0.703-0.265 1.097-0.334l0.029-0.004c0.123 0.123-0.763 2.388-1.286 3.262-0.747 1.318-1.658 2.444-2.726 3.398l-0.013 0.011c-1.927 1.748-4.223 3.13-6.753 4.013l-0.139 0.042-0.929 0.32-0.911-0.32c-2.768-0.933-5.142-2.394-7.108-4.277l0.007 0.006c-2.468-2.369-3.754-4.874-4.080-7.84-0.123-1.108 0.062-3.015 0.332-3.465 0.092-0.16 1.785 0.012 2.892 0.277z">
			</path>
			<path d="M6.505 0.677c-2.806 0.591-4.985 2.905-5.698 6.043-0.265 1.095-0.246 3.206 0.012 4.406 0.623 2.798 2 5.21 3.906 7.087l0.002 0.002c1.828 1.846 3.428 2.966 5.969 4.129l1.323 0.628v8.412h1.422v-7.951l0.357 0.105c0.203 0.055 0.511 0.055 0.714 0l0.357-0.105v7.951h1.422v-8.425l1.268-0.578c2.318-1.030 4.296-2.414 5.96-4.108l0.003-0.003c2.757-2.8 4.172-5.988 4.172-9.452 0.012-3.797-1.982-6.88-5.108-7.926-0.665-0.234-1.009-0.271-2.265-0.258-1.317 0.012-1.612 0.062-2.609 0.369-1.169 0.382-2.326 0.985-3.077 1.606l-0.443 0.369-0.64-0.474c-1.46-1.123-3.298-1.821-5.297-1.883l-0.014-0c-0.689-0.018-1.477 0-1.735 0.062zM9.212 2.111c0.492 0.092 1.169 0.289 1.526 0.431 0.757 0.308 2.031 1.108 2.523 1.582 0.775 0.726 0.985 0.714 1.865-0.068 1.451-1.252 3.335-2.036 5.401-2.104l0.014-0c2.48 0 4.738 1.938 5.465 4.677 0.135 0.486 0.246 1.268 0.265 1.742 0.049 1.040 0.012 1.071-1.6 1.686-1.305 0.492-2.4 0.738-4.271 0.948-1.194 0.135-1.446 0.203-1.815 0.474-0.757 0.56-0.874 0.978-0.874 3.335 0 1.766-0.025 2.098-0.203 2.283-0.246 0.277-0.689 0.265-0.985-0.025-0.222-0.215-0.234-0.382-0.234-2.708 0-2.585-0.074-3.028-0.554-3.545-0.111-0.123-0.954-0.566-1.865-1.015-1.027-0.476-1.908-0.998-2.729-1.595l0.046 0.032c-2.972-2.228-4.289-2.862-6.732-3.243-0.695-0.111-1.292-0.215-1.317-0.228-0.105-0.080 0.535-0.905 1.114-1.409 1.378-1.225 2.942-1.618 4.96-1.249zM5.286 6.566c1.461 0.417 2.733 1.071 3.841 1.927l-0.026-0.019 1.483 1.083c0.897 0.643 1.918 1.225 2.999 1.699l0.109 0.043c0.486 0.209 0.948 0.455 1.028 0.554 0.111 0.129 0.148 0.862 0.148 2.671 0 2.178 0.031 2.548 0.222 2.954 0.394 0.831 1.022 1.212 1.982 1.212 0.615 0 1.046-0.185 1.495-0.658 0.505-0.523 0.566-0.843 0.566-3.046 0-2.505-0.025-2.462 1.378-2.578 1.415-0.123 3.188-0.505 4.363-0.929 0.325-0.147 0.703-0.265 1.097-0.334l0.029-0.004c0.123 0.123-0.763 2.388-1.286 3.262-0.747 1.318-1.658 2.444-2.726 3.398l-0.013 0.011c-1.927 1.748-4.223 3.13-6.753 4.013l-0.139 0.042-0.929 0.32-0.911-0.32c-2.768-0.933-5.142-2.394-7.108-4.277l0.007 0.006c-2.468-2.369-3.754-4.874-4.080-7.84-0.123-1.108 0.062-3.015 0.332-3.465 0.092-0.16 1.785 0.012 2.892 0.277z">
			</path>
		</symbol>
		<symbol id="icon-arrow" viewBox="0 0 19 32">
			<path fill="none" stroke-linecap="round" stroke-miterlimit="4" stroke-width="6.4" d="M3.2 3.2l11.553 12.8-11.553 12.8">
			</path>
		</symbol>
		<symbol id="icon-logo" viewBox="0 0 127 32">
			<path fill="#fff" style="fill: var(--color2, #fff)" d="M31.36 16.32c0 8.66-6.877 15.68-15.36 15.68s-15.36-7.020-15.36-15.68c0-8.66 6.877-15.68 15.36-15.68s15.36 7.020 15.36 15.68z">
			</path>
			<path fill="#d41443" style="fill: var(--color1, #d41443)" d="M11.849 0.561c-7.405 2.243-11.849 8.074-11.849 15.442 0 6.022 3.091 11.277 8.179 13.904 2.64 1.345 3.027 0.384 0.579-1.474-1.738-1.409-2.061-2.050-2.061-4.421 0-1.666-0.386-3.011-0.966-3.524-1.158-0.961-1.288-3.46-0.128-4.357 0.45-0.384 0.901-1.666 0.965-2.819 0.323-4.228 4.895-8.201 9.467-8.201s9.144 3.972 9.466 8.201c0.064 1.153 0.515 2.435 0.966 2.819 1.158 0.897 1.030 3.396-0.129 4.357-0.579 0.513-0.966 1.858-0.966 3.524 0 2.371-0.321 3.012-2.060 4.421-2.705 2.115-1.932 2.883 1.094 1.025 4.251-2.627 7.406-8.33 7.406-13.391 0-10.124-10.561-18.325-19.964-15.506z">
			</path>
			<path fill="#d41443" style="fill: var(--color1, #d41443)" d="M12.687 7.994c-1.16 0.513-2.125 1.154-2.125 1.538 0 0.705 3.478 1.987 5.474 1.987s5.474-1.281 5.474-1.987c0-0.768-3.993-2.499-5.603-2.499-0.644 0.064-2.125 0.448-3.22 0.961zM45.851 11.326c-0.966 0.256-1.158 1.089-1.158 5.702v5.382h4.572l-0.193-5.574c-0.193-5.83-0.451-6.28-3.22-5.51zM53.386 11.646c-2.125 1.154-2.898 2.563-2.898 5.318 0 3.78 2.061 5.574 5.86 5.318 2.576-0.192 2.833-0.385 3.027-1.987s0.064-1.73-1.932-1.602c-2.061 0.192-2.125 0.064-2.125-2.051s0.129-2.243 1.997-2.050c1.545 0.128 2.125-0.128 2.382-1.089 0.129-0.641 0-1.538-0.387-1.923-0.901-0.897-4.25-0.897-5.924 0.064zM61.050 11.71c-0.194 0.513-0.258 3.012-0.129 5.638l0.193 4.742h4.186c3.864 0 4.186-0.128 4.379-1.474 0.193-1.217-0.064-1.409-2.060-1.409-1.288 0-2.319-0.32-2.319-0.641 0-0.385 0.902-0.641 1.932-0.641 1.481 0 1.932-0.256 1.932-1.281s-0.451-1.281-1.932-1.281c-1.030 0-1.932-0.32-1.932-0.641 0-0.385 0.837-0.641 1.868-0.641 1.804 0 3.027-1.409 2.254-2.627-0.58-0.961-7.985-0.705-8.371 0.256zM73.993 11.518c-2.125 0.833-2.962 2.307-3.027 4.998-0.065 4.613 1.803 6.215 6.633 5.766 1.868-0.128 2.189-0.448 2.189-1.794 0-1.409-0.257-1.602-2.061-1.409-1.546 0.128-2.125-0.064-2.447-1.089-0.58-1.987 0.644-3.588 2.705-3.588 1.224 0 1.868-0.384 1.996-1.217 0.451-2.051-2.833-3.011-5.989-1.666zM81.914 11.262c-0.323 0.256-0.515 2.883-0.515 5.83v5.382l2.060-0.192c1.61-0.128 2.19-0.577 2.512-1.795l0.386-1.602 0.515 1.73c0.387 1.474 0.837 1.795 2.512 1.795 2.769 0 3.091-0.449 1.932-2.691-0.708-1.41-0.837-2.115-0.322-2.627 0.837-0.833 0.902-3.652 0.129-4.87-0.644-1.025-8.371-1.858-9.208-0.961zM87.194 14.722c0 0.705-0.257 1.281-0.644 1.281-0.322 0-0.644-0.576-0.644-1.281s0.322-1.282 0.644-1.282c0.387 0 0.644 0.577 0.644 1.282zM93.441 11.326c-0.258 0.192-0.451 2.819-0.451 5.766v5.318h4.186c4.057 0 4.186-0.064 4.186-1.602 0-1.346-0.322-1.602-1.932-1.602-1.030 0-1.932-0.32-1.932-0.641 0-0.385 0.708-0.641 1.61-0.641 1.159 0 1.61-0.321 1.61-1.282s-0.451-1.281-1.61-1.281c-0.902 0-1.61-0.32-1.61-0.641 0-0.384 0.902-0.641 1.932-0.641 1.61 0 1.932-0.256 1.932-1.602 0-1.538-0.193-1.602-3.735-1.602-2.061 0-3.992 0.192-4.186 0.448zM106.45 11.262c-1.16 0.32-4.122 8.842-3.542 10.252 0.515 1.281 3.413 1.153 4.186-0.192 0.579-1.089 0.644-1.089 1.803 0 1.482 1.281 4.701 1.474 4.701 0.256 0-0.384-0.644-2.947-1.482-5.574-1.288-4.228-1.674-4.805-3.027-4.933-0.902 0-2.061 0.064-2.64 0.192zM108.253 17.092c-0.193 0.641-0.322 0.256-0.322-0.769 0-1.089 0.129-1.538 0.322-1.153 0.129 0.448 0.129 1.345 0 1.922zM115.723 11.326c-0.58 0.192-0.837 1.986-0.837 5.702v5.382h1.868c1.61 0 1.932-0.321 2.189-1.795 0.257-1.666 0.257-1.666 0.772-0.32 0.258 0.833 0.902 1.474 1.352 1.474 0.515 0 1.224-0.641 1.546-1.474 0.515-1.346 0.58-1.346 0.58 0.384 0.065 1.602 0.257 1.795 2.061 1.602l1.996-0.192 0.065-5.318c0.129-4.933 0.064-5.318-1.288-5.638-2.061-0.512-3.799 0.705-4.379 3.076l-0.451 2.115-0.708-2.243c-0.902-3.012-2.254-3.78-4.765-2.755zM9.016 11.967c-0.193 0.256-0.387 1.089-0.387 1.922 0 1.474 0.064 1.474 7.406 1.474 7.341 0 7.405 0 7.405-1.474 0-2.179-0.579-2.435-2.64-1.409-2.319 1.217-7.213 1.217-9.531 0-1.030-0.513-1.997-0.705-2.254-0.513zM7.148 17.669c-1.030 1.089 0.708 1.538 5.731 1.538h5.409v2.243c0 1.217 0.322 2.243 0.644 2.243 0.386 0 0.644-0.961 0.644-2.179 0-2.115 0.129-2.243 2.576-2.435 1.416-0.128 2.576-0.512 2.576-0.832 0-0.705-16.872-1.282-17.581-0.577z">
			</path>
			<path fill="#d41443" style="fill: var(--color1, #d41443)" d="M8.629 23.308c0 3.524 1.224 4.229 7.406 4.229s7.405-0.705 7.405-4.229c0-1.538-0.322-2.179-0.966-2.179-0.579 0-0.965 0.577-0.965 1.538 0 3.588-4.895 3.908-5.603 0.384-0.322-1.858-0.515-1.922-3.799-1.922h-3.478v2.179zM12.622 30.548c0.387 2.051 6.955 1.859 6.955-0.128 0-0.705-0.837-0.961-3.606-0.961-3.027 0-3.542 0.192-3.348 1.089z">
			</path>
		</symbol>
		<symbol id="icon-arrow" viewBox="0 0 32 32">
			<path d="M19.414 27.414l10-10c0.781-0.781 0.781-2.047 0-2.828l-10-10c-0.781-0.781-2.047-0.781-2.828 0s-0.781 2.047 0 2.828l6.586 6.586h-19.172c-1.105 0-2 0.895-2 2s0.895 2 2 2h19.172l-6.586 6.586c-0.39 0.39-0.586 0.902-0.586 1.414s0.195 1.024 0.586 1.414c0.781 0.781 2.047 0.781 2.828 0z">
			</path>
		</symbol>
		<symbol id="icon-modal-burger" viewBox="0 0 32 32">
			<path d="M6.4 11.736v-2.136h19.2v2.136h-19.2zM6.4 17.064h19.2v-2.128h-19.2v2.128zM6.4 22.4h19.2v-2.136h-19.2v2.136z">
			</path>
		</symbol>
		<symbol id="icon-modal-close" viewBox="0 0 32 32">
			<path d="M26.667 7.303l-1.97-1.97-7.808 7.808-7.808-7.808-1.97 1.97 7.808 7.808-7.808 7.808 1.97 1.97 7.808-7.808 7.808 7.808 1.97-1.97-7.808-7.808 7.808-7.808z">
			</path>
		</symbol>
		<symbol id="icon-products-dots" viewBox="0 0 139 32">
			<path fill="#fff" style="fill: var(--color1, #fff)" d="M85.333 16c0 8.837-7.163 16-16 16s-16-7.163-16-16c0-8.837 7.163-16 16-16s16 7.163 16 16z">
			</path>
			<path fill="#fff" style="fill: var(--color1, #fff)" d="M32 16c0 8.837-7.163 16-16 16s-16-7.163-16-16c0-8.837 7.163-16 16-16s16 7.163 16 16z">
			</path>
			<path fill="#fff" style="fill: var(--color1, #fff)" d="M138.667 16c0 8.837-7.163 16-16 16s-16-7.163-16-16c0-8.837 7.163-16 16-16s16 7.163 16 16z">
			</path>
		</symbol>
		<symbol id="icon-products-arrow" viewBox="0 0 32 32">
			<path d="M19.414 27.414l10-10c0.781-0.781 0.781-2.047 0-2.828l-10-10c-0.781-0.781-2.047-0.781-2.828 0s-0.781 2.047 0 2.828l6.586 6.586h-19.172c-1.105 0-2 0.895-2 2s0.895 2 2 2h19.172l-6.586 6.586c-0.39 0.39-0.586 0.902-0.586 1.414s0.195 1.024 0.586 1.414c0.781 0.781 2.047 0.781 2.828 0z">
			</path>
		</symbol>
		<symbol id="icon-Burger-1" viewBox="0 0 46 32">
			<path fill="none" stroke="#d41443" style="stroke: var(--color1, #d41443)" stroke-linejoin="miter" stroke-linecap="butt" stroke-miterlimit="4" stroke-width="2.2857" d="M0 2.286h45.714M0 16h45.714M0 29.714h45.714">
			</path>
		</symbol>
		<!-- CLOSE BUTTON -->
		<symbol id="icon-close-button" viewBox="0 0 32 32">
			<path d="M26.667 7.303l-1.97-1.97-7.808 7.808-7.808-7.808-1.97 1.97 7.808 7.808-7.808 7.808 1.97 1.97 7.808-7.808 7.808 7.808 1.97-1.97-7.808-7.808 7.808-7.808z">
			</path>
		</symbol>
		<!-- BUY NOW -->
		<symbol id="icon-buy-now" viewBox="0 0 32 32">
			<path d="M18 23l3 3 10-10-10-10-3 3 7 7z">
			</path>
		</symbol>
		<symbol id="icon-loon-icon" viewBox="0 0 32 32">
			<path d="M8.005 19.324l1.305 1.305 6.69-6.69 6.69 6.69 1.305-1.305-7.995-7.952z">
			</path>
		</symbol>
		<!-- MODAL-SUBSCRIBE -->
		<symbol id="icon-checkbox" viewBox="0 0 34 32">
			<path d="M8.442 16.538l-0.147-0.141-0.147 0.139-2.057 1.95 0.162 0.156 7.605 7.253 0.147-0.141 16.171-15.426-0.162-0.154-2.029-1.935-0.147 0.141-13.98 13.325-5.417-5.167z">
			</path>
		</symbol>
		<symbol id="icon-email" viewBox="0 0 32 32">
			<path d="M26.667 5.333h-21.333c-1.467 0-2.652 1.2-2.652 2.667l-0.014 16c0 1.467 1.2 2.667 2.667 2.667h21.333c1.467 0 2.667-1.2 2.667-2.667v-16c0-1.467-1.2-2.667-2.667-2.667zM26.133 11.001l-9.426 5.892c-0.201 0.126-0.446 0.2-0.708 0.2s-0.506-0.075-0.713-0.204l0.006 0.003-9.426-5.892c-0.336-0.201-0.557-0.562-0.557-0.975 0-0.625 0.507-1.132 1.132-1.132 0.233 0 0.449 0.070 0.629 0.19l-0.004-0.003 8.933 5.586 8.933-5.588c0.176-0.118 0.392-0.188 0.624-0.188 0.625 0 1.132 0.507 1.132 1.132 0 0.413-0.221 0.775-0.552 0.972l-0.005 0.003z">
			</path>
		</symbol>
		<symbol id="icon-person" viewBox="0 0 32 32">
			<path d="M16 16c2.946 0 5.333-2.388 5.333-5.333s-2.388-5.333-5.333-5.333v0c-2.946 0-5.333 2.388-5.333 5.333s2.388 5.333 5.333 5.333v0zM16 18.667c-3.561 0-10.667 1.787-10.667 5.333v1.333c0 0.732 0.599 1.333 1.333 1.333h18.667c0.732 0 1.333-0.601 1.333-1.333v-1.333c0-3.547-7.108-5.333-10.667-5.333z">
			</path>
		</symbol>
		<symbol id="icon-phone" viewBox="0 0 32 32">
			<path d="M24.882 19.774l-3.268-0.373c-0.090-0.011-0.194-0.018-0.3-0.018-0.707 0-1.347 0.287-1.81 0.75l-2.368 2.368c-3.669-1.894-6.585-4.81-8.427-8.372l-0.051-0.108 2.382-2.377c0.463-0.463 0.75-1.103 0.75-1.81 0-0.106-0.006-0.21-0.019-0.312l0.001 0.012-0.373-3.243c-0.155-1.287-1.24-2.276-2.557-2.276-0.001 0-0.002 0-0.003 0h-2.226c-1.454 0-2.663 1.209-2.574 2.661 0.683 10.987 9.47 19.762 20.444 20.444 1.452 0.089 2.663-1.12 2.663-2.574v-2.226c0-0.004 0-0.008 0-0.012 0-1.308-0.985-2.386-2.253-2.532l-0.012-0.001z">
			</path>
		</symbol>
	</defs>
</svg>
